<?xml version="1.0" encoding="utf-8"?><!DOCTYPE svg PUBLIC "-//W3C//DTD SVG 1.1//EN" "http://www.w3.org/Graphics/SVG/1.1/DTD/svg11.dtd"><svg version="1.1" xmlns="http://www.w3.org/2000/svg" xmlns:xlink="http://www.w3.org/1999/xlink" width="24" height="24" viewBox="0 0 24 24" data-tags="user"><g fill="#444" transform="scale(0.0234375 0.0234375)"><path d="M682.667 597.333h-341.333c-119.467 0-213.333 93.867-213.333 213.333v85.333c0 25.6 17.067 42.667 42.667 42.667s42.667-17.067 42.667-42.667v-85.333c0-72.533 55.467-128 128-128h341.333c72.533 0 128 55.467 128 128v85.333c0 25.6 17.067 42.667 42.667 42.667s42.667-17.067 42.667-42.667v-85.333c0-119.467-93.867-213.333-213.333-213.333z" /><path d="M512 512c119.467 0 213.333-93.867 213.333-213.333s-93.867-213.333-213.333-213.333-213.333 93.867-213.333 213.333 93.867 213.333 213.333 213.333zM512 170.667c72.533 0 128 55.467 128 128s-55.467 128-128 128-128-55.467-128-128 55.467-128 128-128z" /></g></svg>