<?xml version="1.0" encoding="utf-8"?><!DOCTYPE svg PUBLIC "-//W3C//DTD SVG 1.1//EN" "http://www.w3.org/Graphics/SVG/1.1/DTD/svg11.dtd"><svg version="1.1" xmlns="http://www.w3.org/2000/svg" xmlns:xlink="http://www.w3.org/1999/xlink" width="32" height="32" viewBox="0 0 32 32" data-tags="brand,superuser"><g fill="#444" transform="scale(0.03125 0.03125)"><path fill="rgb(46, 172, 227)" d="M891.2 617.792c-63.232 17.92-106.24 54.912-106.24 115.84v174.080c0 130.112-124.032 115.84-278.016 115.84h-23.68c-9.6 0-15.36-3.584-15.36-11.968v-59.648c0-8.32 5.12-11.968 14.72-11.968h19.2c92.16 0 156.8 20.288 156.8-53.76v-167.040c0-51.2 35.84-122.88 107.52-149.12 5.12-1.28 5.76-3.584 5.76-5.952s-1.28-5.952-5.76-8.32c-65.28-29.888-107.52-78.72-107.52-137.28v-188.736c0-72.832-64-145.6-156.16-145.6h-19.2c-9.6 0-14.080-3.584-14.080-11.904v-59.456c0-8.32 6.4-11.968 16-11.968h23.68c153.6 0 279.040 109.76 279.040 239.808v158.72c0 60.16 42.88 94.72 107.52 117.12 23.68 7.040 37.12 8.32 37.12 27.52v49.92c1.28 10.88-10.24 16-39.040 24.32zM346.24 1022.72h-238.528c-9.6 0-14.336-2.368-14.336-10.752v-1000.064c0-7.040 4.48-11.904 14.080-11.904h236.16c9.6 0 15.36 3.584 15.36 11.904v62.080c0 8.32-5.12 10.752-14.72 10.752h-105.536c-12.992 0-17.92 4.736-17.92 13.12v828.16c0 8.32 4.928 11.52 15.68 11.52h107.392c9.6 0 15.488 3.2 15.488 10.88v63.36c1.28 7.040-3.584 10.88-13.12 10.88zM554.24 466.56h-63.36c-15.488 0-27.392-11.968-27.392-25.152v-57.28c0-14.272 13.12-24.96 27.392-24.96h63.36c15.36 0 27.392 11.84 27.392 24.96v57.28c0 14.336-13.184 25.088-27.52 25.088z" /></g></svg>